<?xml version="1.0" encoding="UTF-8" standalone="no"?>
<!DOCTYPE svg PUBLIC "-//W3C//DTD SVG 20010904//EN"
              "http://www.w3.org/TR/2001/REC-SVG-20010904/DTD/svg10.dtd">

<svg xmlns="http://www.w3.org/2000/svg"
     width="4.8605in" height="4.8605in"
     viewBox="0 0 350 350">
  <path id="Selection"
        fill="#FFF3E0" stroke="none" stroke-width="1"
        d="M 258.98,104.02
           C 260.57,109.90 255.78,120.64 253.29,126.00
             253.29,126.00 246.50,141.12 246.50,141.12
             246.50,141.12 241.00,160.00 241.00,160.00
             247.12,159.75 251.76,142.21 253.00,133.00
             261.55,138.88 251.22,158.45 245.90,163.96
             240.24,169.80 234.50,169.56 232.50,160.38
             221.25,180.25 213.44,162.75 213.44,162.75
             209.06,169.81 199.31,186.94 191.44,169.69
             191.44,169.69 179.63,189.84 172.00,188.57
             167.97,187.89 164.83,184.68 162.00,182.00
             160.88,185.36 158.90,189.35 155.83,191.38
             151.64,194.15 147.20,190.13 146.35,186.00
             145.52,181.97 149.54,171.63 150.49,167.00
             153.50,153.38 150.60,157.15 149.00,151.00
             151.15,151.02 153.93,150.96 155.98,151.57
             161.09,153.09 162.18,157.19 161.55,162.00
             161.55,162.00 156.00,184.00 156.00,184.00
             167.77,170.83 159.16,163.83 172.53,148.06
             179.53,139.79 188.29,147.79 189.31,151.09
             190.76,155.78 183.79,170.39 173.00,166.00
             172.03,173.38 171.27,173.73 174.00,181.00
             182.81,176.98 189.06,168.27 191.70,159.00
             191.70,159.00 193.67,148.00 193.67,148.00
             195.69,138.67 199.13,129.66 203.08,121.00
             204.47,117.97 207.40,111.44 209.47,109.15
             214.49,103.57 220.05,107.71 220.87,114.00
             221.92,122.15 218.52,133.84 214.68,141.00
             209.23,151.15 205.48,150.71 203.30,154.26
             200.83,158.29 201.00,165.38 201.00,170.00
             211.10,162.60 213.41,153.84 217.66,143.00
             219.13,139.26 223.31,130.03 227.10,128.61
             231.76,126.87 236.75,131.26 240.00,134.00
             240.00,134.00 248.80,107.00 248.80,107.00
             248.80,107.00 251.00,100.38 247.00,96.62
             252.31,97.19 257.54,98.71 258.98,104.02 Z
           M 204.75,149.12
           C 211.62,140.12 215.14,129.30 216.00,119.00
             212.34,124.55 203.62,142.62 204.75,149.12 Z
           M 222.00,164.00
           C 230.63,157.82 241.88,141.12 236.00,135.00
             226.91,139.64 222.32,157.55 222.00,164.00 Z
           M 158.95,146.04
           C 154.74,146.98 149.89,140.76 157.04,136.92
             165.18,136.56 163.35,145.05 158.95,146.04 Z
           M 143.98,149.22
           C 145.35,151.50 144.03,163.98 144.00,166.75
             143.89,175.84 140.91,193.12 138.00,202.00
             150.14,202.00 169.00,199.94 169.00,199.94
             169.00,199.94 207.62,195.37 221.00,190.19
             231.75,186.03 242.04,182.20 248.00,171.88
             249.75,168.00 245.19,169.69 245.19,169.69
             245.25,167.50 246.54,165.43 249.11,164.03
             252.87,161.97 260.06,164.36 260.46,169.04
             260.70,171.82 257.84,175.85 256.24,178.00
             251.29,184.64 242.39,190.50 235.00,194.19
             218.00,204.73 136.00,210.00 136.00,210.00
             135.67,217.05 131.46,231.25 128.80,238.00
             124.38,249.21 115.98,261.80 105.00,267.34
             96.51,271.63 82.55,274.04 77.85,262.96
             76.73,260.31 76.97,255.00 77.00,252.00
             77.24,232.78 94.48,215.01 111.00,207.53
             116.18,205.19 122.26,202.54 128.00,203.00
             128.00,203.00 131.00,187.00 131.00,187.00
             128.71,192.13 124.93,199.30 120.00,202.25
             113.90,205.89 106.95,199.93 107.71,192.00
             108.94,178.98 119.18,163.04 121.00,153.00
             113.89,158.43 108.66,165.56 103.83,173.00
             100.96,177.42 95.12,185.88 99.00,186.00
             101.42,183.53 102.80,185.84 101.83,187.84
             99.95,191.94 92.55,191.74 89.63,187.84
             87.74,185.24 88.47,182.63 89.63,180.00
             93.40,171.62 108.80,154.78 116.00,149.31
             130.75,140.38 127.90,157.71 127.75,157.62
             127.60,157.54 117.75,187.38 118.12,191.75
             130.12,192.12 140.75,156.12 133.12,145.38
             136.91,145.56 141.79,145.59 143.98,149.22 Z
           M 175.00,164.00
           C 179.64,161.63 180.94,160.50 182.12,153.69
             177.44,156.44 176.39,159.29 175.00,164.00 Z
           M 85.88,242.00
           C 84.28,246.94 82.60,255.32 85.88,259.94
             89.39,265.32 94.31,263.44 98.99,260.76
             107.79,255.71 112.65,246.00 116.58,237.00
             116.58,237.00 126.00,213.00 126.00,213.00
             109.41,213.81 91.54,226.28 85.88,242.00 Z
           M 107.50,143.88M 239.09,209.45" />
</svg>
